<?xml version="1.0" standalone="no"?><svg xmlns="http://www.w3.org/2000/svg" viewBox="0 0 1440 320"><path fill="#0099ff" fill-opacity="1" d="M0,32L10.4,53.3C20.9,75,42,117,63,128C83.5,139,104,117,125,133.3C146.1,149,167,203,188,240C208.7,277,230,299,250,288C271.3,277,292,235,313,229.3C333.9,224,355,256,376,240C396.5,224,417,160,438,154.7C459.1,149,480,203,501,224C521.7,245,543,235,563,218.7C584.3,203,605,181,626,192C647,203,668,245,689,256C709.6,267,730,245,751,197.3C772.2,149,793,75,814,85.3C834.8,96,856,192,877,229.3C897.4,267,918,245,939,240C960,235,981,245,1002,250.7C1022.6,256,1043,256,1064,245.3C1085.2,235,1106,213,1127,186.7C1147.8,160,1169,128,1190,128C1210.4,128,1231,160,1252,165.3C1273,171,1294,149,1315,170.7C1335.7,192,1357,256,1377,240C1398.3,224,1419,128,1430,80L1440,32L1440,320L1429.6,320C1419.1,320,1398,320,1377,320C1356.5,320,1336,320,1315,320C1293.9,320,1273,320,1252,320C1231.3,320,1210,320,1190,320C1168.7,320,1148,320,1127,320C1106.1,320,1085,320,1064,320C1043.5,320,1023,320,1002,320C980.9,320,960,320,939,320C918.3,320,897,320,877,320C855.7,320,835,320,814,320C793,320,772,320,751,320C730.4,320,710,320,689,320C667.8,320,647,320,626,320C605.2,320,584,320,563,320C542.6,320,522,320,501,320C480,320,459,320,438,320C417.4,320,397,320,376,320C354.8,320,334,320,313,320C292.2,320,271,320,250,320C229.6,320,209,320,188,320C167,320,146,320,125,320C104.3,320,83,320,63,320C41.7,320,21,320,10,320L0,320Z"></path></svg>